<svg xmlns="http://www.w3.org/2000/svg" xmlns:xlink="http://www.w3.org/1999/xlink" width="500" zoomAndPan="magnify" viewBox="0 0 375 374.999991" height="500" preserveAspectRatio="xMidYMid meet" version="1.0"><defs><g/><clipPath id="48ec54b816"><path d="M 29.648438 124 L 345.398438 124 L 345.398438 250.714844 L 29.648438 250.714844 Z M 29.648438 124 " clip-rule="nonzero"/></clipPath></defs><g clip-path="url(#48ec54b816)"><path fill="#000000" d="M 241.527344 250.667969 L 244.980469 250.589844 C 243.882812 250.90625 242.707031 250.90625 241.527344 250.667969 Z M 83.636719 192.128906 C 79.871094 192.128906 76.417969 191.578125 73.199219 190.558594 C 69.984375 189.539062 67.160156 188.046875 64.804688 186.164062 C 62.449219 184.28125 60.566406 182.003906 59.3125 179.414062 C 57.976562 176.746094 57.347656 173.84375 57.347656 170.625 C 57.347656 167.40625 57.976562 164.425781 59.390625 161.757812 C 60.722656 159.089844 62.527344 156.8125 64.882812 154.851562 C 67.238281 152.890625 69.984375 151.398438 73.199219 150.378906 C 76.417969 149.28125 79.871094 148.808594 83.636719 148.808594 L 128.683594 148.808594 L 146.496094 125.503906 L 83.636719 125.503906 C 75.867188 125.503906 68.648438 126.523438 62.058594 128.640625 C 55.464844 130.761719 49.738281 133.742188 44.949219 137.585938 C 40.164062 141.511719 36.394531 146.140625 33.726562 151.554688 C 30.980469 156.972656 29.648438 162.933594 29.648438 169.527344 C 29.648438 176.117188 30.980469 182.082031 33.726562 187.65625 C 36.476562 193.226562 40.242188 198.089844 44.949219 202.09375 C 49.738281 206.175781 55.386719 209.390625 62.058594 211.667969 C 68.726562 213.945312 75.867188 215.121094 83.636719 215.121094 L 128.683594 215.121094 L 146.496094 192.050781 L 83.636719 192.050781 Z M 126.25 152.96875 L 126.25 187.96875 L 154.109375 187.96875 L 154.109375 179.964844 L 209.195312 179.964844 L 225.128906 159.5625 L 154.109375 159.5625 L 154.109375 148.808594 L 212.101562 148.808594 L 230.070312 125.503906 L 151.675781 125.503906 L 130.722656 152.96875 Z M 154.109375 192.128906 L 154.109375 189.066406 L 133.941406 215.199219 L 191.070312 215.199219 L 207.390625 192.128906 Z M 257.773438 192.128906 L 241.058594 215.199219 L 345.351562 215.199219 L 289.242188 134.136719 C 287.28125 131.308594 284.847656 128.878906 282.101562 126.992188 C 279.273438 125.109375 275.742188 124.089844 271.585938 124.089844 C 267.191406 124.089844 263.582031 125.109375 260.753906 127.152344 C 257.929688 129.191406 255.496094 131.546875 253.613281 134.136719 L 212.492188 192.128906 L 196.171875 215.199219 L 228.972656 215.199219 L 271.035156 155.714844 L 287.121094 179.414062 C 288.613281 181.535156 290.261719 183.886719 291.910156 186.320312 C 293.558594 188.753906 295.046875 190.792969 296.226562 192.441406 C 294.105469 192.285156 291.515625 192.207031 288.691406 192.207031 L 257.773438 192.207031 Z M 257.773438 192.128906 " fill-opacity="1" fill-rule="nonzero"/></g><g fill="#000000" fill-opacity="1"><g transform="translate(37.500002, 247.324846)"><g><path d="M 8.714844 -5.839844 L 4.160156 -8.140625 L 8.714844 -10.394531 L 8.714844 -14.511719 L -0.046875 -9.84375 L -0.046875 -6.394531 L 8.714844 -1.839844 Z M 8.714844 -5.839844 "/></g></g></g><g fill="#000000" fill-opacity="1"><g transform="translate(48.099428, 247.324846)"><g><path d="M 4.714844 -8.023438 C 4.714844 -11.082031 6.921875 -12.601562 9.128906 -12.601562 C 10.96875 -12.601562 12.832031 -11.542969 13.359375 -9.40625 L 17.339844 -9.40625 C 16.832031 -13.542969 13.269531 -16.347656 9.128906 -16.347656 C 4.53125 -16.347656 0.804688 -12.761719 0.804688 -8.023438 C 0.804688 -3.289062 4.53125 0.230469 9.128906 0.230469 C 13.3125 0.230469 16.761719 -2.550781 17.359375 -6.761719 L 13.382812 -6.761719 C 12.878906 -4.574219 11.015625 -3.472656 9.128906 -3.472656 C 6.921875 -3.472656 4.714844 -4.988281 4.714844 -8.023438 Z M 4.714844 -8.023438 "/></g></g></g><g fill="#000000" fill-opacity="1"><g transform="translate(66.194332, 247.324846)"><g><path d="M 13.359375 -6.207031 C 13.359375 -10.648438 10.046875 -12.855469 6.738281 -12.855469 C 3.402344 -12.855469 0.09375 -10.648438 0.09375 -6.207031 C 0.09375 -1.792969 3.425781 0.414062 6.738281 0.414062 C 10.046875 0.414062 13.359375 -1.792969 13.359375 -6.207031 Z M 3.726562 -6.207031 C 3.726562 -8.324219 5.21875 -9.382812 6.738281 -9.382812 C 8.394531 -9.382812 9.726562 -8.324219 9.726562 -6.207031 C 9.726562 -4.117188 8.230469 -3.082031 6.738281 -3.082031 C 5.21875 -3.082031 3.726562 -4.117188 3.726562 -6.207031 Z M 3.726562 -6.207031 "/></g></g></g><g fill="#000000" fill-opacity="1"><g transform="translate(80.748424, 247.324846)"><g><path d="M 6.347656 -12.648438 C 2.300781 -12.648438 0.320312 -9.796875 0.320312 -6.394531 C 0.320312 -2.964844 2.367188 0.160156 6.300781 0.160156 C 7.496094 0.160156 8.714844 -0.183594 9.566406 -1.242188 L 9.566406 0 L 13.175781 0 L 13.175781 -16.210938 L 9.566406 -16.210938 L 9.566406 -11.3125 C 8.738281 -12.257812 7.566406 -12.648438 6.347656 -12.648438 Z M 6.738281 -3.3125 C 4.898438 -3.3125 3.957031 -4.804688 3.957031 -6.300781 C 3.957031 -7.816406 4.875 -9.3125 6.738281 -9.3125 C 8.300781 -9.3125 9.566406 -7.957031 9.566406 -6.300781 C 9.566406 -4.644531 8.300781 -3.3125 6.738281 -3.3125 Z M 6.738281 -3.3125 "/></g></g></g><g fill="#000000" fill-opacity="1"><g transform="translate(95.532439, 247.324846)"><g><path d="M 13.152344 -6.253906 C 13.152344 -10.507812 9.933594 -12.625 6.738281 -12.625 C 3.496094 -12.625 0.300781 -10.507812 0.300781 -6.253906 C 0.300781 -2 3.496094 0.136719 6.714844 0.136719 C 9.289062 0.136719 11.84375 -1.21875 12.785156 -3.933594 L 8.851562 -3.933594 C 8.324219 -3.355469 7.566406 -3.082031 6.761719 -3.082031 C 5.65625 -3.105469 4.53125 -3.679688 4.09375 -4.828125 L 13.015625 -4.828125 C 13.105469 -5.289062 13.152344 -5.75 13.152344 -6.253906 Z M 9.199219 -7.65625 L 4.230469 -7.65625 C 4.597656 -8.875 5.585938 -9.472656 6.667969 -9.472656 C 7.839844 -9.472656 8.851562 -8.898438 9.199219 -7.65625 Z M 9.199219 -7.65625 "/></g></g></g><g fill="#ffe500" fill-opacity="1"><g transform="translate(117.086665, 247.324846)"><g><path d="M 1.148438 -16.234375 L 1.148438 0 L 11.773438 0 L 11.773438 -3.792969 L 5.105469 -3.792969 L 5.105469 -6.371094 L 11.613281 -6.371094 L 11.613281 -10.1875 L 5.105469 -10.1875 L 5.105469 -12.441406 L 11.75 -12.441406 L 11.75 -16.234375 Z M 1.148438 -16.234375 "/></g></g></g><g fill="#ffe500" fill-opacity="1"><g transform="translate(129.916338, 247.324846)"><g><path d="M 4.183594 -11.199219 L 4.183594 -12.441406 L 0.527344 -12.441406 L 0.527344 0 L 4.367188 0 L 4.367188 -6.761719 C 4.367188 -8.347656 5.65625 -9.265625 6.738281 -9.265625 C 7.726562 -9.265625 8.667969 -8.507812 8.667969 -6.828125 L 8.667969 0 L 12.347656 0 L 12.347656 -6.851562 C 12.371094 -9.957031 11.40625 -12.578125 7.863281 -12.625 C 6.53125 -12.625 5.058594 -12.300781 4.183594 -11.199219 Z M 4.183594 -11.199219 "/></g></g></g><g fill="#ffe500" fill-opacity="1"><g transform="translate(143.872636, 247.324846)"><g><path d="M 4.207031 -11.199219 L 4.207031 -16.210938 L 0.550781 -16.210938 L 0.550781 0 L 4.390625 0 L 4.390625 -6.761719 C 4.390625 -8.253906 5.703125 -9.199219 6.785156 -9.199219 C 7.773438 -9.199219 8.691406 -8.484375 8.691406 -6.828125 L 8.691406 0 L 12.347656 0 L 12.347656 -6.851562 C 12.394531 -9.957031 11.40625 -12.578125 7.863281 -12.625 C 6.53125 -12.625 5.105469 -12.300781 4.207031 -11.199219 Z M 4.207031 -11.199219 "/></g></g></g><g fill="#ffe500" fill-opacity="1"><g transform="translate(157.828933, 247.324846)"><g><path d="M 6.347656 -12.648438 C 2.300781 -12.648438 0.320312 -9.796875 0.320312 -6.394531 C 0.320312 -2.964844 2.367188 0.160156 6.300781 0.160156 C 7.496094 0.160156 8.714844 -0.183594 9.566406 -1.242188 L 9.566406 0 L 13.175781 0 L 13.175781 -12.441406 L 9.566406 -12.441406 L 9.566406 -11.152344 C 8.761719 -12.1875 7.566406 -12.648438 6.347656 -12.648438 Z M 6.738281 -3.3125 C 4.898438 -3.3125 3.957031 -4.804688 3.957031 -6.300781 C 3.957031 -7.816406 4.875 -9.3125 6.738281 -9.3125 C 8.300781 -9.3125 9.566406 -7.957031 9.566406 -6.300781 C 9.566406 -4.644531 8.300781 -3.3125 6.738281 -3.3125 Z M 6.738281 -3.3125 "/></g></g></g><g fill="#ffe500" fill-opacity="1"><g transform="translate(172.612948, 247.324846)"><g><path d="M 4.183594 -11.199219 L 4.183594 -12.441406 L 0.527344 -12.441406 L 0.527344 0 L 4.367188 0 L 4.367188 -6.761719 C 4.367188 -8.347656 5.65625 -9.265625 6.738281 -9.265625 C 7.726562 -9.265625 8.667969 -8.507812 8.667969 -6.828125 L 8.667969 0 L 12.347656 0 L 12.347656 -6.851562 C 12.371094 -9.957031 11.40625 -12.578125 7.863281 -12.625 C 6.53125 -12.625 5.058594 -12.300781 4.183594 -11.199219 Z M 4.183594 -11.199219 "/></g></g></g><g fill="#ffe500" fill-opacity="1"><g transform="translate(186.569246, 247.324846)"><g><path d="M 12.832031 -5.289062 L 9.242188 -5.289062 C 8.832031 -3.910156 7.703125 -3.265625 6.597656 -3.265625 C 5.21875 -3.265625 3.839844 -4.277344 3.839844 -6.230469 C 3.839844 -8.1875 5.21875 -9.199219 6.597656 -9.199219 C 7.703125 -9.199219 8.832031 -8.53125 9.242188 -7.152344 L 12.832031 -7.152344 C 12.347656 -10.808594 9.472656 -12.601562 6.597656 -12.601562 C 3.449219 -12.601562 0.300781 -10.441406 0.300781 -6.230469 C 0.300781 -2.023438 3.449219 0.136719 6.597656 0.136719 C 9.472656 0.136719 12.347656 -1.65625 12.832031 -5.289062 Z M 12.832031 -5.289062 "/></g></g></g><g fill="#ffe500" fill-opacity="1"><g transform="translate(200.686493, 247.324846)"><g><path d="M 13.152344 -6.253906 C 13.152344 -10.507812 9.933594 -12.625 6.738281 -12.625 C 3.496094 -12.625 0.300781 -10.507812 0.300781 -6.253906 C 0.300781 -2 3.496094 0.136719 6.714844 0.136719 C 9.289062 0.136719 11.84375 -1.21875 12.785156 -3.933594 L 8.851562 -3.933594 C 8.324219 -3.355469 7.566406 -3.082031 6.761719 -3.082031 C 5.65625 -3.105469 4.53125 -3.679688 4.09375 -4.828125 L 13.015625 -4.828125 C 13.105469 -5.289062 13.152344 -5.75 13.152344 -6.253906 Z M 9.199219 -7.65625 L 4.230469 -7.65625 C 4.597656 -8.875 5.585938 -9.472656 6.667969 -9.472656 C 7.839844 -9.472656 8.851562 -8.898438 9.199219 -7.65625 Z M 9.199219 -7.65625 "/></g></g></g><g fill="#000000" fill-opacity="1"><g transform="translate(222.237469, 245.08563)"><g><path d="M 6.621094 -16.28125 L 0.183594 0 L 4.390625 0 L 5.289062 -2.367188 L 10.785156 -2.367188 L 11.679688 0 L 16.121094 0 L 9.429688 -16.28125 Z M 8.046875 -9.796875 L 9.289062 -6.300781 L 9.382812 -6.023438 L 6.714844 -6.023438 L 6.851562 -6.394531 Z M 8.046875 -9.796875 "/></g></g></g><g fill="#000000" fill-opacity="1"><g transform="translate(238.33205, 245.08563)"><g><path d="M 12.832031 -5.289062 L 9.242188 -5.289062 C 8.832031 -3.910156 7.703125 -3.265625 6.597656 -3.265625 C 5.21875 -3.265625 3.839844 -4.277344 3.839844 -6.230469 C 3.839844 -8.1875 5.21875 -9.199219 6.597656 -9.199219 C 7.703125 -9.199219 8.832031 -8.53125 9.242188 -7.152344 L 12.832031 -7.152344 C 12.347656 -10.808594 9.472656 -12.601562 6.597656 -12.601562 C 3.449219 -12.601562 0.300781 -10.441406 0.300781 -6.230469 C 0.300781 -2.023438 3.449219 0.136719 6.597656 0.136719 C 9.472656 0.136719 12.347656 -1.65625 12.832031 -5.289062 Z M 12.832031 -5.289062 "/></g></g></g><g fill="#000000" fill-opacity="1"><g transform="translate(252.449297, 245.08563)"><g><path d="M 6.347656 -12.648438 C 2.300781 -12.648438 0.320312 -9.796875 0.320312 -6.394531 C 0.320312 -2.964844 2.367188 0.160156 6.300781 0.160156 C 7.496094 0.160156 8.714844 -0.183594 9.566406 -1.242188 L 9.566406 0 L 13.175781 0 L 13.175781 -12.441406 L 9.566406 -12.441406 L 9.566406 -11.152344 C 8.761719 -12.1875 7.566406 -12.648438 6.347656 -12.648438 Z M 6.738281 -3.3125 C 4.898438 -3.3125 3.957031 -4.804688 3.957031 -6.300781 C 3.957031 -7.816406 4.875 -9.3125 6.738281 -9.3125 C 8.300781 -9.3125 9.566406 -7.957031 9.566406 -6.300781 C 9.566406 -4.644531 8.300781 -3.3125 6.738281 -3.3125 Z M 6.738281 -3.3125 "/></g></g></g><g fill="#000000" fill-opacity="1"><g transform="translate(267.233312, 245.08563)"><g><path d="M 6.347656 -12.648438 C 2.300781 -12.648438 0.320312 -9.796875 0.320312 -6.394531 C 0.320312 -2.964844 2.367188 0.160156 6.300781 0.160156 C 7.496094 0.160156 8.714844 -0.183594 9.566406 -1.242188 L 9.566406 0 L 13.175781 0 L 13.175781 -16.210938 L 9.566406 -16.210938 L 9.566406 -11.3125 C 8.738281 -12.257812 7.566406 -12.648438 6.347656 -12.648438 Z M 6.738281 -3.3125 C 4.898438 -3.3125 3.957031 -4.804688 3.957031 -6.300781 C 3.957031 -7.816406 4.875 -9.3125 6.738281 -9.3125 C 8.300781 -9.3125 9.566406 -7.957031 9.566406 -6.300781 C 9.566406 -4.644531 8.300781 -3.3125 6.738281 -3.3125 Z M 6.738281 -3.3125 "/></g></g></g><g fill="#000000" fill-opacity="1"><g transform="translate(282.017327, 245.08563)"><g><path d="M 13.152344 -6.253906 C 13.152344 -10.507812 9.933594 -12.625 6.738281 -12.625 C 3.496094 -12.625 0.300781 -10.507812 0.300781 -6.253906 C 0.300781 -2 3.496094 0.136719 6.714844 0.136719 C 9.289062 0.136719 11.84375 -1.21875 12.785156 -3.933594 L 8.851562 -3.933594 C 8.324219 -3.355469 7.566406 -3.082031 6.761719 -3.082031 C 5.65625 -3.105469 4.53125 -3.679688 4.09375 -4.828125 L 13.015625 -4.828125 C 13.105469 -5.289062 13.152344 -5.75 13.152344 -6.253906 Z M 9.199219 -7.65625 L 4.230469 -7.65625 C 4.597656 -8.875 5.585938 -9.472656 6.667969 -9.472656 C 7.839844 -9.472656 8.851562 -8.898438 9.199219 -7.65625 Z M 9.199219 -7.65625 "/></g></g></g><g fill="#000000" fill-opacity="1"><g transform="translate(296.732368, 245.08563)"><g><path d="M 4.484375 -11.199219 L 4.484375 -12.441406 L 0.828125 -12.441406 L 0.828125 0 L 4.667969 0 L 4.667969 -7.035156 C 4.667969 -8.417969 5.792969 -9.058594 6.691406 -9.058594 C 7.542969 -9.058594 8.277344 -8.507812 8.277344 -6.992188 L 8.277344 0 L 11.933594 0 L 11.933594 -7.082031 C 11.957031 -8.4375 13.246094 -9.058594 14.140625 -9.058594 C 14.992188 -9.058594 15.730469 -8.507812 15.730469 -6.992188 L 15.730469 0 L 19.386719 0 L 19.386719 -7.011719 C 19.429688 -11.082031 17.40625 -12.601562 14.945312 -12.601562 C 13.542969 -12.601562 11.886719 -12.074219 11.082031 -10.96875 C 10.484375 -11.933594 9.542969 -12.625 8.046875 -12.625 C 6.738281 -12.625 5.335938 -12.28125 4.484375 -11.199219 Z M 4.484375 -11.199219 "/></g></g></g><g fill="#000000" fill-opacity="1"><g transform="translate(317.747289, 245.08563)"><g><path d="M 12.257812 -11.867188 L 12.257812 -12.441406 L 8.507812 -12.441406 L 6.96875 -8.460938 L 6.046875 -5.3125 L 5.175781 -8.460938 L 3.632812 -12.441406 L -0.136719 -12.441406 L -0.136719 -11.867188 L 4 -1.011719 L 2.390625 3.082031 L 2.390625 3.632812 L 6.140625 3.632812 C 8.164062 -1.539062 10.210938 -6.691406 12.257812 -11.867188 Z M 12.257812 -11.867188 "/></g></g></g><g fill="#000000" fill-opacity="1"><g transform="translate(330.967836, 245.08563)"><g/></g></g><g fill="#000000" fill-opacity="1"><g transform="translate(336.738896, 245.08563)"><g><path d="M 3.335938 1.289062 L 9.566406 -16.992188 L 5.773438 -16.992188 L -0.460938 1.289062 Z M 3.335938 1.289062 "/></g></g></g><g fill="#000000" fill-opacity="1"><g transform="translate(347.384304, 245.08563)"><g><path d="M -0.0234375 -10.507812 L 4.507812 -8.277344 L -0.0234375 -6.046875 L -0.0234375 -1.976562 L 8.484375 -6.371094 L 8.484375 -10.09375 L -0.0234375 -14.648438 Z M -0.0234375 -10.507812 "/></g></g></g></svg>